<svg width="14" height="15" viewBox="0 0 14 15" fill="none" xmlns="http://www.w3.org/2000/svg">
<path d="M13.2053 2.98683C12.132 2.88016 11.0586 2.80016 9.97858 2.74016V2.7335L9.83198 1.86683C9.73198 1.2535 9.58528 0.333496 8.02529 0.333496H6.27863C4.72529 0.333496 4.57862 1.2135 4.47196 1.86016L4.33196 2.7135C3.71196 2.7535 3.09196 2.7935 2.47196 2.8535L1.11196 2.98683C0.831964 3.0135 0.631964 3.26016 0.658634 3.5335C0.685294 3.80683 0.925294 4.00683 1.20529 3.98016L2.56529 3.84683C6.05863 3.50016 9.57858 3.6335 13.112 3.98683C13.132 3.98683 13.1453 3.98683 13.1653 3.98683C13.4186 3.98683 13.6386 3.7935 13.6653 3.5335C13.6853 3.26016 13.4853 3.0135 13.2053 2.98683Z" fill="white" fill-opacity="0.72"/>
<path d="M11.9784 4.9265C11.8184 4.75984 11.5984 4.6665 11.3717 4.6665H2.94503C2.71836 4.6665 2.4917 4.75984 2.33836 4.9265C2.18503 5.09317 2.09836 5.31984 2.11169 5.55317L2.52503 12.3931C2.59836 13.4065 2.6917 14.6731 5.01836 14.6731H9.2984C11.625 14.6731 11.7184 13.4131 11.7917 12.3931L12.205 5.55984C12.2184 5.31984 12.1317 5.09317 11.9784 4.9265ZM8.26503 11.3331H6.04503C5.7717 11.3331 5.54503 11.1065 5.54503 10.8331C5.54503 10.5598 5.7717 10.3331 6.04503 10.3331H8.26503C8.53836 10.3331 8.76503 10.5598 8.76503 10.8331C8.76503 11.1065 8.53836 11.3331 8.26503 11.3331ZM8.82503 8.6665H5.4917C5.21836 8.6665 4.9917 8.43984 4.9917 8.1665C4.9917 7.89317 5.21836 7.6665 5.4917 7.6665H8.82503C9.0984 7.6665 9.325 7.89317 9.325 8.1665C9.325 8.43984 9.0984 8.6665 8.82503 8.6665Z" fill="white" fill-opacity="0.72"/>
</svg>
