<svg width="48" height="48" viewBox="0 0 48 48" fill="none" xmlns="http://www.w3.org/2000/svg">
<path d="M48 24C48 10.7452 37.2548 0 24 0C10.7452 0 0 10.7452 0 24C0 37.2548 10.7452 48 24 48C37.2548 48 48 37.2548 48 24Z" fill="black"/>
<path d="M29.49 21.6001L17.6 28.7701C16.9 29.1901 16 28.6901 16 27.8701V19.8701C16 16.3801 19.77 14.2001 22.8 15.9401L27.39 18.5801L29.48 19.7801C30.17 20.1901 30.18 21.1901 29.49 21.6001Z" fill="white"/>
<path d="M30.0898 27.4601L26.0398 29.8001L21.9998 32.1301C20.5498 32.9601 18.9098 32.7901 17.7198 31.9501C17.1398 31.5501 17.2098 30.6601 17.8198 30.3001L30.5298 22.6801C31.1298 22.3201 31.9198 22.6601 32.0298 23.3501C32.2798 24.9001 31.6398 26.5701 30.0898 27.4601Z" fill="white"/>
</svg>
