<svg width="35" height="35" viewBox="0 0 35 35" fill="none" xmlns="http://www.w3.org/2000/svg">
<path d="M2 19.05C2.82217 19.05 3.61067 18.7234 4.19203 18.142C4.77339 17.5607 5.1 16.7722 5.1 15.95V9.75C5.1 8.92783 5.42661 8.13933 6.00797 7.55797C6.58933 6.97661 7.37783 6.65 8.2 6.65C9.02217 6.65 9.81067 6.97661 10.392 7.55797C10.9734 8.13933 11.3 8.92783 11.3 9.75V29.9C11.3 30.7222 11.6266 31.5107 12.208 32.092C12.7893 32.6734 13.5778 33 14.4 33C15.2222 33 16.0107 32.6734 16.592 32.092C17.1734 31.5107 17.5 30.7222 17.5 29.9V5.1C17.5 4.27783 17.8266 3.48933 18.408 2.90797C18.9893 2.32661 19.7778 2 20.6 2C21.4222 2 22.2107 2.32661 22.792 2.90797C23.3734 3.48933 23.7 4.27783 23.7 5.1V25.25C23.7 26.0722 24.0266 26.8607 24.608 27.442C25.1893 28.0234 25.9778 28.35 26.8 28.35C27.6222 28.35 28.4107 28.0234 28.992 27.442C29.5734 26.8607 29.9 26.0722 29.9 25.25V19.05C29.9 18.2278 30.2266 17.4393 30.808 16.858C31.3893 16.2766 32.1778 15.95 33 15.95" stroke="url(#paint0_linear_377_3)" stroke-width="3" stroke-linecap="round" stroke-linejoin="round"/>
<defs>
<linearGradient id="paint0_linear_377_3" x1="2" y1="18" x2="33" y2="18" gradientUnits="userSpaceOnUse">
<stop stop-color="#2563EB"/>
<stop offset="1" stop-color="#A855F7"/>
</linearGradient>
</defs>
</svg>
