<svg width="37" height="37" viewBox="0 0 37 37" fill="none" xmlns="http://www.w3.org/2000/svg">
<path d="M28.8536 31.734L25.5876 16.8557L31.9381 10.5052C34.6598 7.78351 35.567 4.15464 34.6598 2.34021C32.8454 1.43299 29.2165 2.34021 26.4948 5.06186L20.1443 11.4124L5.26598 8.14639C4.35876 7.96495 3.63299 8.32783 3.2701 9.05361L2.72577 9.96082C2.36289 10.868 2.54433 11.7753 3.2701 12.3196L12.8866 18.6701L9.25773 24.1134H3.81443L2 25.9278L7.4433 29.5567L11.0722 35L12.8866 33.1856V27.7423L18.3299 24.1134L24.6804 33.7299C25.2247 34.4557 26.132 34.6371 27.0392 34.2742L27.9464 33.9113C28.6722 33.367 29.035 32.6412 28.8536 31.734Z" stroke="url(#paint0_linear_377_7)" stroke-width="4" stroke-linecap="round" stroke-linejoin="round"/>
<defs>
<linearGradient id="paint0_linear_377_7" x1="2" y1="19" x2="35" y2="19" gradientUnits="userSpaceOnUse">
<stop stop-color="#2563EB"/>
<stop offset="1" stop-color="#A855F7"/>
</linearGradient>
</defs>
</svg>
