<svg width="36" height="37" viewBox="0 0 36 37" fill="none" xmlns="http://www.w3.org/2000/svg">
<path d="M32.1429 0.5H3.85714C2.83416 0.5 1.85309 0.906377 1.12973 1.62973C0.406376 2.35309 0 3.33416 0 4.35714V32.6429C0 33.6658 0.406376 34.6469 1.12973 35.3703C1.85309 36.0936 2.83416 36.5 3.85714 36.5H14.8862V24.2608H9.82366V18.5H14.8862V14.1093C14.8862 9.11509 17.8594 6.35643 22.4132 6.35643C24.5941 6.35643 26.8746 6.74536 26.8746 6.74536V11.6471H24.3619C21.8861 11.6471 21.1138 13.1836 21.1138 14.7594V18.5H26.6408L25.7569 24.2608H21.1138V36.5H32.1429C33.1658 36.5 34.1469 36.0936 34.8703 35.3703C35.5936 34.6469 36 33.6658 36 32.6429V4.35714C36 3.33416 35.5936 2.35309 34.8703 1.62973C34.1469 0.906377 33.1658 0.5 32.1429 0.5Z" fill="white"/>
</svg>
