<svg width="36" height="37" viewBox="0 0 36 37" fill="none" xmlns="http://www.w3.org/2000/svg">
<path d="M18.004 9.27005C12.8962 9.27005 8.77613 13.391 8.77613 18.5C8.77613 23.609 12.8962 27.7299 18.004 27.7299C23.1119 27.7299 27.2319 23.609 27.2319 18.5C27.2319 13.391 23.1119 9.27005 18.004 9.27005ZM18.004 24.5007C14.7032 24.5007 12.0047 21.8096 12.0047 18.5C12.0047 15.1904 14.6951 12.4993 18.004 12.4993C21.3129 12.4993 24.0033 15.1904 24.0033 18.5C24.0033 21.8096 21.3049 24.5007 18.004 24.5007ZM29.7617 8.8925C29.7617 10.0894 28.798 11.0454 27.6094 11.0454C26.4127 11.0454 25.457 10.0814 25.457 8.8925C25.457 7.70361 26.4207 6.73965 27.6094 6.73965C28.798 6.73965 29.7617 7.70361 29.7617 8.8925ZM35.8735 11.0775C35.737 8.19363 35.0784 5.63913 32.9662 3.53447C30.862 1.42982 28.3081 0.771115 25.4249 0.62652C22.4533 0.457827 13.5467 0.457827 10.5751 0.62652C7.69994 0.763082 5.14601 1.42179 3.0338 3.52644C0.921584 5.63109 0.271054 8.1856 0.126492 11.0695C-0.042164 14.0417 -0.042164 22.9503 0.126492 25.9225C0.263023 28.8064 0.921584 31.3609 3.0338 33.4655C5.14601 35.5702 7.69191 36.2289 10.5751 36.3735C13.5467 36.5422 22.4533 36.5422 25.4249 36.3735C28.3081 36.2369 30.862 35.5782 32.9662 33.4655C35.0704 31.3609 35.7289 28.8064 35.8735 25.9225C36.0422 22.9503 36.0422 14.0497 35.8735 11.0775ZM32.0346 29.1116C31.4081 30.6861 30.1954 31.8991 28.6133 32.5337C26.2441 33.4736 20.6222 33.2567 18.004 33.2567C15.3858 33.2567 9.75594 33.4655 7.39476 32.5337C5.82064 31.9071 4.60792 30.6941 3.97345 29.1116C3.0338 26.7419 3.25064 21.1188 3.25064 18.5C3.25064 15.8812 3.04183 10.2501 3.97345 7.88837C4.59989 6.3139 5.8126 5.10091 7.39476 4.46631C9.76397 3.52644 15.3858 3.74333 18.004 3.74333C20.6222 3.74333 26.2521 3.53447 28.6133 4.46631C30.1874 5.09288 31.4001 6.30587 32.0346 7.88837C32.9742 10.2581 32.7574 15.8812 32.7574 18.5C32.7574 21.1188 32.9742 26.7499 32.0346 29.1116Z" fill="white"/>
</svg>
