<svg width="29" height="33" viewBox="0 0 29 33" fill="none" xmlns="http://www.w3.org/2000/svg">
<path d="M29 13.6227C26.1493 13.6293 23.3686 12.7709 21.0505 11.169V22.3418C21.0497 24.4111 20.3946 26.4309 19.1728 28.131C17.951 29.8312 16.2206 31.1307 14.2132 31.8558C12.2058 32.5808 10.0169 32.6969 7.93929 32.1885C5.86168 31.6801 3.99434 30.5714 2.58698 29.0107C1.17962 27.45 0.299307 25.5116 0.0637619 23.4548C-0.171784 21.398 0.248662 19.3208 1.26888 17.501C2.2891 15.6811 3.86046 14.2053 5.77285 13.271C7.68524 12.3366 9.8475 11.9882 11.9705 12.2724V17.8919C10.999 17.5969 9.95581 17.6058 8.98986 17.9173C8.02391 18.2288 7.18461 18.8271 6.59184 19.6266C5.99906 20.4262 5.68311 21.3861 5.68911 22.3694C5.69511 23.3526 6.02275 24.3089 6.62524 25.1016C7.22773 25.8944 8.07426 26.483 9.04395 26.7836C10.0136 27.0841 11.0569 27.0811 12.0247 26.7751C12.9925 26.469 13.8354 25.8755 14.4331 25.0793C15.0307 24.2832 15.3525 23.325 15.3525 22.3418V0.5H21.0505C21.0466 0.96458 21.0869 1.42853 21.171 1.88598C21.369 2.90716 21.7807 3.87861 22.3809 4.74091C22.9811 5.60321 23.7572 6.33822 24.6617 6.901C25.9485 7.72251 27.4573 8.16038 29 8.16006V13.6227Z" fill="white"/>
</svg>
